<svg width="133" height="30" viewBox="0 0 133 30" fill="none" xmlns="http://www.w3.org/2000/svg">
<path d="M121.039 25.5024C117.48 25.5024 115.11 22.8327 115.11 18.981C115.11 15.1292 117.482 12.4572 121.039 12.4572C124.553 12.4572 126.925 15.1241 126.925 18.9786C126.925 22.8327 124.553 25.4997 121.039 25.4997V25.5024ZM121.039 7.95703C114.518 7.95703 109.853 12.6148 109.853 18.9683C109.853 25.3218 114.51 29.977 121.039 29.977C127.517 29.977 132.178 25.3193 132.178 18.9683C132.178 12.6173 127.517 7.96975 121.039 7.96975" fill="#00A1FC"/>
<path d="M97.1953 1.86816V22.1948C97.1953 26.9366 100.246 29.6468 104.904 29.6468H108.374V24.9458H105.496C103.549 24.9458 102.405 23.8451 102.405 21.6864V12.6659H108.374V8.30305H102.405V1.86816H97.1953Z" fill="#00A1FC"/>
<path d="M87.3346 29.6587V16.2778C87.3346 14.1167 88.4787 13.0159 90.4261 13.0159H94.5727V8.31494H89.8338C85.1734 8.31494 82.125 11.0252 82.125 15.7694V29.6587H87.3346Z" fill="#00A1FC"/>
<path d="M68.6878 25.5023C65.1282 25.5023 62.7587 22.8329 62.7587 18.981C62.7587 15.1292 65.1308 12.4572 68.6878 12.4572C72.2014 12.4572 74.5734 15.1241 74.5734 18.9786C74.5734 22.8329 72.2014 25.4999 68.6878 25.4999V25.5023ZM68.6878 7.95703C62.1663 7.95703 57.501 12.6148 57.501 18.9683C57.501 25.3218 62.1791 29.9999 68.6878 29.9999C75.1658 29.9999 79.8235 25.3422 79.8235 18.9912C79.8235 12.6402 75.1658 7.97992 68.6878 7.97992" fill="#00A1FC"/>
<path d="M47.2576 13.6885H41.2449V4.71113H47.2576C50.5628 4.71113 51.9179 6.82642 51.9179 9.19851C51.9179 11.5706 50.5628 13.6885 47.2576 13.6885ZM47.5119 0.01017H35.6133V29.6524H41.2449V18.3894H47.5119C53.6951 18.3894 57.379 14.5758 57.379 9.19851C57.379 3.82128 53.6951 0 47.5119 0" fill="#00A1FC"/>
<path d="M26.7404 16.0799C24.134 12.8517 15.5379 14.5402 8.84186 16.701C8.82353 16.709 8.80351 16.7123 8.78361 16.7107C8.76371 16.709 8.7445 16.7024 8.7277 16.6916C8.71089 16.6807 8.697 16.6657 8.68722 16.6482C8.67746 16.6306 8.67212 16.6108 8.67167 16.5907C8.67167 16.2493 8.68691 15.9029 8.68691 15.5641C8.6936 13.8441 8.5508 12.1266 8.26015 10.4317C8.25637 10.4033 8.26346 10.3744 8.27998 10.3511C8.29648 10.3277 8.32119 10.3116 8.34906 10.306C13.8918 8.25299 25.0561 7.63196 26.9665 15.9901C26.9968 16.1134 26.8165 16.1852 26.7377 16.0825L26.7404 16.0799ZM21.129 25.4568C20.9461 25.5929 20.7072 25.3697 20.8749 25.2003C23.5727 22.4134 25.7878 17.9944 6.24066 26.9967C6.12129 27.0506 6.00188 26.9248 6.08063 26.8247C7.15769 25.2851 8.11281 22.7649 8.55227 19.2133C8.55485 19.1914 8.5633 19.1702 8.57672 19.1527C8.59014 19.1351 8.60802 19.1213 8.62848 19.1133C20.8775 14.1425 34.714 14.3272 21.1391 25.4621L21.129 25.4568ZM4.78512 3.23345C4.76161 3.2215 4.74303 3.20159 4.73263 3.17718C4.72223 3.15278 4.72071 3.12543 4.7283 3.09999C4.73587 3.07456 4.75212 3.05262 4.77412 3.03807C4.79613 3.02352 4.82251 3.01729 4.84862 3.02044C8.23728 3.02044 18.4464 2.76382 23.7098 9.54636C23.7809 9.6644 23.6159 9.78246 23.5116 9.69007C21.924 8.29403 17.6261 5.93055 7.71907 7.99892C7.68708 8.00788 7.65292 8.0041 7.6236 7.98833C7.5943 7.97258 7.5721 7.94606 7.56159 7.91424C6.7741 5.36854 5.78341 3.99048 4.78512 3.23345ZM26.5473 0H4.28722C3.362 0.00678283 2.47728 0.384437 1.82755 1.04995C1.17783 1.71546 0.816274 2.61437 0.822359 3.54908V26.368C0.819011 26.831 0.905978 27.2902 1.07829 27.7193C1.25061 28.1484 1.5049 28.5391 1.82665 28.8689C2.14839 29.1987 2.53129 29.4611 2.95349 29.6414C3.37567 29.8218 3.82888 29.9162 4.28722 29.9197H26.5473C27.0057 29.9162 27.4588 29.8218 27.881 29.6414C28.3031 29.4611 28.686 29.1987 29.0079 28.8689C29.3295 28.5391 29.5839 28.1484 29.7561 27.7193C29.9285 27.2902 30.0155 26.831 30.012 26.368V3.55936C30.0165 3.09567 29.9301 2.63567 29.7585 2.2057C29.5864 1.77571 29.3324 1.3842 29.0105 1.05358C28.6886 0.722957 28.3054 0.459715 27.8829 0.278927C27.4601 0.0981381 27.0064 0.00335401 26.5473 0Z" fill="#00A1FC"/>
</svg>
