<svg width="25" height="24" viewBox="0 0 25 24" fill="none" xmlns="http://www.w3.org/2000/svg">
<path d="M17.0754 12C16.7754 11.7 16.3254 11.7 16.0254 12L13.2504 14.7V7.5C13.2504 7.05 12.9504 6.75 12.5004 6.75C12.0504 6.75 11.7504 7.05 11.7504 7.5V14.7L9.05039 12C8.75039 11.7 8.30039 11.7 8.00039 12C7.70039 12.3 7.70039 12.75 8.00039 13.05L11.9754 17.025C12.1254 17.175 12.2754 17.25 12.5004 17.25C12.7254 17.25 12.8754 17.175 13.0254 17.025L17.0754 13.05C17.3754 12.75 17.3754 12.3 17.0754 12Z" fill="#0D82BD"/>
</svg>
