<svg width="24" height="24" viewBox="0 0 24 24" fill="none" xmlns="http://www.w3.org/2000/svg">
    <path d="M21.525 10.5749C19.35 8.17486 15.675 5.62486 12 5.69986C8.32505 5.62486 4.65005 8.17486 2.55005 10.6499C1.80005 11.4749 1.80005 12.6749 2.55005 13.4999C4.72505 15.8249 8.32505 18.3749 11.925 18.3749C12 18.3749 12.075 18.3749 12.15 18.3749C15.75 18.3749 19.35 15.8249 21.525 13.4249C22.275 12.5999 22.275 11.3999 21.525 10.5749ZM20.4 12.4499C18.4501 14.6249 15.225 16.8749 12.075 16.8749H12C8.77505 16.9499 5.55005 14.6249 3.60005 12.4499C3.37505 12.2249 3.37505 11.8499 3.60005 11.6249C5.55005 9.44986 8.85005 7.12486 12 7.19986C15.225 7.12486 18.4501 9.44986 20.4 11.6249C20.625 11.8499 20.625 12.2249 20.4 12.4499Z" fill="#D81E05" />
    <path d="M12 8.25C9.90005 8.25 8.17505 9.975 8.17505 12.075C8.17505 13.05 8.55005 14.025 9.30005 14.775C9.97505 15.525 10.95 15.9 12 15.9C13.05 15.9 13.9501 15.45 14.7001 14.775C15.4501 14.1 15.8251 13.125 15.8251 12.075C15.8251 11.1 15.4501 10.125 14.7001 9.375C14.0251 8.625 13.05 8.25 12 8.25ZM13.6501 13.65C13.2001 14.1 12.6 14.325 12 14.325C11.4 14.325 10.8 14.1 10.35 13.65C9.90005 13.2 9.67505 12.6 9.67505 12C9.67505 10.725 10.725 9.675 12 9.675C12.6 9.675 13.2001 9.9 13.6501 10.35C14.1001 10.8 14.3251 11.4 14.3251 12C14.3251 12.6 14.1001 13.2 13.6501 13.65Z" fill="#D81E05" />
</svg>
    