<svg width="24" height="24" viewBox="0 0 24 24" fill="none" xmlns="http://www.w3.org/2000/svg">
    <path d="M20.3254 3.67656C19.3504 2.70156 17.7004 2.70156 16.7254 3.67656L9.07539 11.4016C8.92539 11.5516 8.85039 11.7016 8.85039 11.8516L8.40039 14.8516C8.40039 15.0766 8.47539 15.3016 8.62539 15.4516C8.77539 15.6016 8.92539 15.6766 9.15039 15.6766H9.22539L12.2254 15.2266C12.3754 15.2266 12.5254 15.1516 12.6754 15.0016L20.3254 7.27656C20.7754 6.82656 21.0754 6.15156 21.0754 5.47656C21.0754 4.80156 20.7754 4.12656 20.3254 3.67656ZM19.2754 6.22656L11.7754 13.7266L10.0504 13.9516L10.2754 12.2266L17.7754 4.72656C18.1504 4.27656 18.8254 4.27656 19.2754 4.72656C19.7254 5.10156 19.7254 5.77656 19.2754 6.22656Z" fill="#D81E05" />
    <path d="M18.225 12.2234C17.775 12.2234 17.475 12.5234 17.475 12.9734V19.0484C17.475 19.1234 17.4 19.2734 17.325 19.3484C17.25 19.4234 17.175 19.4984 17.025 19.4984H4.95C4.725 19.4984 4.5 19.2734 4.5 19.0484V6.97344C4.5 6.67344 4.725 6.44844 4.95 6.52344H11.025C11.475 6.52344 11.775 6.22344 11.775 5.77344C11.775 5.32344 11.475 5.02344 11.025 5.02344H4.95C3.9 5.02344 3 5.92344 3 6.97344V19.0484C3 20.0984 3.9 20.9984 4.95 20.9984H17.025C17.55 20.9984 18.075 20.7734 18.375 20.3984C18.75 20.0984 18.975 19.5734 18.975 19.0484V12.9734C18.975 12.5234 18.675 12.2234 18.225 12.2234Z" fill="#D81E05" />
</svg>
    