<svg width="49" height="49" viewBox="0 0 49 49" fill="none" xmlns="http://www.w3.org/2000/svg">
<path d="M24.5012 36C22.9012 36 21.7012 37.2 21.7012 38.8C21.7012 40.4 22.9012 41.6 24.5012 41.6C25.9012 41.6 27.3012 40.4 27.3012 38.8C27.3012 37.2 26.1012 36 24.5012 36Z" fill="#D81E05"/>
<path d="M24.5 34.4001C25.5 34.4001 26.5 33.4001 26.5 32.4001V17.6001C26.5 16.4001 25.7 15.6001 24.5 15.6001C23.3 15.6001 22.5 16.4001 22.5 17.6001V32.4001C22.5 33.6001 23.3 34.4001 24.5 34.4001Z" fill="#D81E05"/>
<path d="M48.1005 41.8L29.5005 3.80002C28.9005 2.40002 27.7005 1.40002 26.3005 1.00002C24.9005 0.600016 23.3005 0.800016 21.9005 1.20002C20.7005 1.80002 19.9005 2.80002 19.3005 3.80002L0.700455 41.8C0.100455 43 0.100455 44.4 0.500455 45.6C0.900455 46.8 1.90046 47.8 3.10046 48.4C3.70046 48.8 4.50046 49 5.30046 49H43.7005C46.5005 49 48.7005 46.8 48.7005 44C48.7005 43.2 48.5005 42.4 48.1005 41.8ZM43.5005 45.2H5.30046C5.10046 45.2 5.10045 45 4.90045 45C4.50045 44.8 4.30046 44.6 4.30046 44.4C4.30046 44.2 4.10046 44 4.30046 43.6L23.1005 5.80002C23.3005 5.40002 23.5005 5.20002 23.9005 5.00002C24.1005 4.80002 24.3005 4.80002 24.5005 4.80002C24.5005 4.80002 24.7005 4.80002 24.9005 5.00002C25.3005 5.20002 25.5005 5.40002 25.7005 5.80002L44.3005 43.8C44.5005 44 44.5005 44 44.5005 44.2C44.5005 44.8 44.1005 45.2 43.5005 45.2Z" fill="#D81E05"/>
</svg>
