<svg width="64" height="64" viewBox="0 0 64 64" fill="none" xmlns="http://www.w3.org/2000/svg">
<path d="M36.5996 39.5999H34.9996C34.3996 39.5999 33.7996 39.1999 33.7996 38.3999V30.1999C33.7996 28.1999 32.1996 26.5999 30.1996 26.5999H28.5996C27.3996 26.5999 26.5996 27.3999 26.5996 28.5999C26.5996 29.7999 27.3996 30.5999 28.5996 30.5999H29.9996V38.5999C29.9996 41.3999 32.1996 43.7999 35.1996 43.7999H36.7996C37.9996 43.7999 38.5996 42.7999 38.5996 41.5999C38.5996 40.3999 37.7996 39.5999 36.5996 39.5999Z" fill="#0D82BD"/>
<path d="M31.2004 23.9999C32.6004 23.9999 34.0004 22.7999 34.0004 21.1999C34.0004 19.5999 32.8004 18.3999 31.2004 18.3999C29.6004 18.3999 28.4004 19.5999 28.4004 21.1999C28.4004 22.7999 29.6004 23.9999 31.2004 23.9999Z" fill="#0D82BD"/>
<path d="M32.0002 5.19995C17.2002 5.19995 5.2002 17.4 5.2002 32C5.2002 46.6 17.2002 58.5999 32.0002 58.5999C46.6002 58.5999 58.8002 46.7999 58.8002 32C58.8002 17.2 46.8002 5.19995 32.0002 5.19995ZM32.0002 54.7999C19.4002 54.7999 9.2002 44.6 9.2002 32C9.2002 19.4 19.4002 9.19995 32.0002 9.19995C44.4002 9.19995 54.8002 19.4 54.8002 32C54.8002 44.6 44.6002 54.7999 32.0002 54.7999Z" fill="#0D82BD"/>
</svg>
