<svg width="24" height="24" viewBox="0 0 24 24" fill="none" xmlns="http://www.w3.org/2000/svg">
    <path d="M9.67492 9.6748C9.22493 9.6748 8.92493 9.9748 8.92493 10.4248V16.6498C8.92493 17.0998 9.22493 17.3998 9.67492 17.3998C10.1249 17.3998 10.4249 17.0998 10.4249 16.6498V10.4248C10.4249 9.9748 10.1249 9.6748 9.67492 9.6748Z" fill="#D81E05" />
    <path d="M14.325 9.6748C13.875 9.6748 13.575 9.9748 13.575 10.4248V16.6498C13.575 17.0998 13.875 17.3998 14.325 17.3998C14.775 17.3998 15.075 17.0998 15.075 16.6498V10.4248C15.075 9.9748 14.775 9.6748 14.325 9.6748Z" fill="#D81E05" />
    <path d="M21.3 5.02471H18.975H16.65V4.27471C16.65 2.99971 15.6 1.94971 14.325 1.94971H9.67495C9.07495 1.94971 8.47495 2.17471 8.02495 2.62471C7.57495 3.07471 7.34995 3.67471 7.34995 4.27471V5.02471H5.02495H2.69995C2.24995 5.02471 1.94995 5.32471 1.94995 5.77471C1.94995 6.22471 2.24995 6.52471 2.69995 6.52471H4.27495V19.7247C4.27495 20.9997 5.32495 22.0497 6.59995 22.0497H17.4C18.675 22.0497 19.725 20.9997 19.725 19.7247V6.52471H21.3C21.75 6.52471 22.05 6.22471 22.05 5.77471C22.05 5.32471 21.75 5.02471 21.3 5.02471ZM8.84995 4.27471C8.84995 4.04971 8.99995 3.82471 9.14995 3.67471C9.29995 3.52471 9.44995 3.44971 9.67495 3.44971H14.25C14.7 3.44971 15.075 3.82471 15.075 4.27471V5.02471H8.84995V4.27471ZM18.3 19.7247C18.3 20.1747 17.925 20.5497 17.475 20.5497H6.59995C6.14995 20.5497 5.77495 20.1747 5.77495 19.7247V6.52471H8.09995H15.9H18.3V19.7247Z" fill="#D81E05" />
</svg>
    