<svg width="257" height="30" viewBox="0 0 257 30" fill="none" xmlns="http://www.w3.org/2000/svg">
    <path fill-rule="evenodd" clip-rule="evenodd" d="M18.7658 9.52572C19.1049 9.66557 19.3345 9.9883 19.3345 10.3648C19.3345 10.5692 19.2635 10.7467 19.1595 10.8973L16.0533 16.1416C15.9822 16.2922 15.8236 16.3944 15.6486 16.3944C15.4626 16.3944 15.2986 16.2868 15.222 16.1308L12.1376 10.8919C12.0228 10.7413 11.9681 10.5531 11.9681 10.3648C11.9681 10.0044 12.1868 9.68709 12.4985 9.54186C13.5376 9.15997 14.5658 8.97171 15.6486 8.97171C16.7314 8.97171 17.7705 9.15997 18.7275 9.50421L18.7658 9.52572ZM9.66024 11.2415C9.88446 11.064 10.2181 11.0425 10.4915 11.1931C10.6337 11.2792 10.7376 11.3921 10.8032 11.532L13.297 15.8081C13.3736 15.9264 13.3845 16.0716 13.3189 16.2007C13.2368 16.3244 13.0892 16.3944 12.9525 16.3836L7.93757 16.3944C7.78991 16.4105 7.63132 16.3782 7.50006 16.2975C7.23756 16.1523 7.10084 15.8672 7.11725 15.5876C7.27584 14.7216 7.55475 13.9255 7.99773 13.1833C8.4407 12.4302 8.99305 11.7848 9.62743 11.2577L9.66024 11.2415ZM21.6369 11.2415C21.4018 11.064 21.0736 11.0425 20.8002 11.1931C20.658 11.2792 20.5541 11.3921 20.4939 11.532L17.9947 15.8081C17.9127 15.9264 17.9017 16.0716 17.9783 16.2007C18.0603 16.3244 18.2025 16.3944 18.3338 16.3836L23.3486 16.3944C23.5018 16.4105 23.6604 16.3782 23.7916 16.2975C24.0541 16.1523 24.1908 15.8672 24.169 15.5876C24.0213 14.7216 23.7315 13.9255 23.2994 13.1833C22.8565 12.4302 22.2932 11.7848 21.6588 11.2577L21.6369 11.2415ZM16.3869 17.8574V22.4185H14.9048V17.8574C14.1939 17.852 13.2587 17.852 12.9196 17.8412L7.98679 17.852C7.57116 17.8735 7.14459 17.7821 6.75084 17.5615C6.00161 17.1313 5.60786 16.3513 5.6352 15.5607C5.6352 15.4477 5.65161 15.3455 5.66255 15.2595C5.83755 14.2967 6.18208 13.3446 6.70162 12.4464C7.23209 11.5481 7.91022 10.779 8.67586 10.1443C9.18445 9.76777 9.90634 9.57951 10.5681 9.69246C10.7595 9.07391 11.197 8.5468 11.7767 8.2671C11.8806 8.20794 11.979 8.15415 12.0665 8.12725C13.1821 7.73461 14.3908 7.51946 15.6376 7.51946C16.8955 7.51946 18.1095 7.73461 19.2252 8.14339C19.876 8.41771 20.4447 8.99861 20.6853 9.68171C21.3197 9.53648 21.976 9.67633 22.501 10.069C23.2666 10.6983 24.0432 11.5535 24.5737 12.4518C25.0987 13.35 25.4432 14.302 25.6182 15.2648C25.6291 15.3509 25.6401 15.4531 25.6455 15.566C25.6784 16.3567 25.2737 17.1366 24.5299 17.5669C24.1471 17.7875 23.7205 17.8789 23.2994 17.8574L18.3666 17.8466C18.0275 17.852 17.0923 17.852 16.3869 17.8574ZM15.6431 1.49528C8.07429 1.49528 1.93829 7.53021 1.93829 14.969C1.93829 22.4132 8.07429 28.4535 15.6431 28.4535C23.2119 28.4535 29.3479 22.4132 29.3479 14.969C29.3479 7.53021 23.2174 1.49528 15.6431 1.49528ZM15.6431 0.0699158C24.0049 0.0699158 30.7917 6.73954 30.7917 14.9636C30.7917 23.1931 24.0049 29.8681 15.6431 29.8681C7.28131 29.8681 0.5 23.1985 0.5 14.9636C0.5 6.73954 7.28131 0.0699158 15.6431 0.0699158Z" fill="#D81E05" />
    <path d="M54.7615 0L62.1717 14.9367L69.5928 0H80.7929V29.8681H69.5928V14.9367L62.1717 29.8681L54.7615 14.9367V29.8681H43.5504V0H54.7615Z" fill="#D81E05" />
    <path d="M103.018 4.48048L98.4626 20.0573H107.563L103.018 4.48048ZM84.3914 29.8681L93.1141 0H112.928L121.639 29.8681H110.434L108.996 24.9627H97.0352L95.6024 29.8681H84.3914Z" fill="#D81E05" />
    <path fill-rule="evenodd" clip-rule="evenodd" d="M139.041 3.44239C141.573 3.44239 144.029 4.77094 144.029 7.47644C144.029 10.1873 141.863 12.3765 139.041 12.3765H136.613V3.44777H139.041V3.44239ZM146.194 0.0161438C151.094 0.0161438 155.054 3.91572 155.054 8.72431C155.054 13.5329 151.089 17.4271 146.194 17.4271H136.427V29.8681H125.216V0.0161438H146.194Z" fill="#D81E05" />
    <path d="M158.937 0H188.731V4.91078H170.142V12.5002H188.731V17.4002H170.142V29.8681H158.937V0Z" fill="#D81E05" />
    <path d="M237.906 24.9627H256.5V29.8681H226.695V0H256.5V4.91078H237.906V12.5002H256.5V17.4002H237.906V24.9627Z" fill="#D81E05" />
    <path fill-rule="evenodd" clip-rule="evenodd" d="M206.482 3.44239C208.949 3.44239 211.47 4.77094 211.47 7.47644C211.47 10.1819 209.244 12.3765 206.482 12.3765H204.06V3.44239H206.482ZM222.484 22.1604V22.4024C222.484 22.3217 222.49 22.2411 222.484 22.1604ZM222.484 22.4024V29.8681H214.893H211.459V22.6445C211.459 22.5638 211.464 22.4777 211.464 22.4024C211.464 19.7023 209.228 17.5024 206.477 17.5024H204.054V29.8681H192.652V14.9367V0.0161438H205.11H214.893C219.088 0.0161438 222.484 3.35634 222.484 7.47644C222.484 11.6019 219.093 14.9367 214.893 14.9367C219 14.9367 222.353 18.1478 222.484 22.1604C222.49 22.2411 222.484 22.3217 222.484 22.4024Z" fill="#D81E05" />
</svg>
    